<?xml version="1.0" encoding="UTF-8"?>
<svg xmlns="http://www.w3.org/2000/svg" xmlns:xlink="http://www.w3.org/1999/xlink" width="900pt" height="899.99999pt" viewBox="0 0 900 899.99999" version="1.2">
<defs>
<clipPath id="clip1">
  <path d="M 90 94.5 L 810 94.5 L 810 805.5 L 90 805.5 Z M 90 94.5 "/>
</clipPath>
</defs>
<g id="surface1">
<rect x="0" y="0" width="900" height="899.99999" style="fill:rgb(100%,100%,100%);fill-opacity:1;stroke:none;"/>
<rect x="0" y="0" width="900" height="899.99999" style="fill:rgb(100%,100%,100%);fill-opacity:1;stroke:none;"/>
<rect x="0" y="0" width="900" height="899.99999" style="fill:rgb(100%,100%,100%);fill-opacity:1;stroke:none;"/>
<path style=" stroke:none;fill-rule:nonzero;fill:rgb(0%,14.509583%,100%);fill-opacity:1;" d="M 375.1875 507.4375 L 294.570312 588.058594 C 296.953125 589.855469 299.234375 591.824219 301.382812 593.976562 C 305.097656 597.6875 308.292969 601.78125 310.949219 606.160156 L 392.195312 524.910156 C 386.25 519.371094 380.570312 513.539062 375.1875 507.4375 "/>
<path style=" stroke:none;fill-rule:nonzero;fill:rgb(0%,14.509583%,100%);fill-opacity:1;" d="M 561.480469 523.269531 C 462.152344 523.269531 381.34375 442.460938 381.34375 343.132812 C 381.34375 243.808594 462.152344 162.996094 561.480469 162.996094 C 660.804688 162.996094 741.617188 243.808594 741.617188 343.132812 C 741.617188 442.460938 660.804688 523.269531 561.480469 523.269531 Z M 561.480469 109.839844 C 432.839844 109.839844 328.1875 214.492188 328.1875 343.132812 C 328.1875 471.773438 432.839844 576.429688 561.480469 576.429688 C 690.117188 576.429688 794.773438 471.773438 794.773438 343.132812 C 794.773438 214.492188 690.117188 109.839844 561.480469 109.839844 "/>
<path style=" stroke:none;fill-rule:nonzero;fill:rgb(0%,14.509583%,100%);fill-opacity:1;" d="M 582.4375 325.632812 C 575.898438 328.039062 568.839844 329.359375 561.476562 329.359375 C 554.113281 329.359375 547.058594 328.039062 540.519531 325.632812 C 501.488281 335.085938 472.40625 370.296875 472.40625 412.191406 C 472.40625 455.34375 502.402344 463.242188 561.476562 463.242188 C 620.550781 463.242188 650.550781 455.34375 650.550781 412.191406 C 650.550781 370.296875 621.464844 335.085938 582.4375 325.632812 "/>
<path style=" stroke:none;fill-rule:nonzero;fill:rgb(0%,14.509583%,100%);fill-opacity:1;" d="M 561.476562 314.128906 C 586.59375 314.128906 607.027344 293.695312 607.027344 268.574219 C 607.027344 243.457031 586.59375 223.03125 561.476562 223.03125 C 536.363281 223.03125 515.929688 243.457031 515.929688 268.574219 C 515.929688 293.695312 536.363281 314.128906 561.476562 314.128906 "/>
<path style=" stroke:none;fill-rule:nonzero;fill:rgb(0%,14.509583%,100%);fill-opacity:1;" d="M 256.050781 590.429688 C 242.996094 590.429688 230.722656 595.511719 221.488281 604.746094 L 119.558594 706.679688 C 110.324219 715.910156 105.238281 728.1875 105.238281 741.238281 C 105.238281 754.296875 110.324219 766.574219 119.558594 775.800781 C 128.789062 785.035156 141.0625 790.113281 154.117188 790.113281 C 167.171875 790.113281 179.449219 785.035156 188.679688 775.800781 L 290.613281 673.871094 C 299.84375 664.632812 304.925781 652.367188 304.925781 639.308594 C 304.925781 626.25 299.84375 613.980469 290.613281 604.746094 C 281.378906 595.511719 269.105469 590.429688 256.050781 590.429688 "/>
<g clip-path="url(#clip1)" clip-rule="nonzero">
<path style=" stroke:none;fill-rule:nonzero;fill:rgb(100%,100%,100%);fill-opacity:1;" d="M 561.480469 576.429688 C 432.839844 576.429688 328.183594 471.773438 328.183594 343.132812 C 328.183594 214.496094 432.839844 109.84375 561.480469 109.84375 C 690.117188 109.84375 794.777344 214.496094 794.777344 343.132812 C 794.777344 471.773438 690.117188 576.429688 561.480469 576.429688 Z M 310.949219 606.160156 C 308.292969 601.78125 305.097656 597.6875 301.382812 593.976562 C 299.234375 591.824219 296.953125 589.855469 294.570312 588.058594 L 375.1875 507.4375 C 380.570312 513.539062 386.25 519.367188 392.195312 524.910156 Z M 290.613281 673.871094 L 188.679688 775.800781 C 179.449219 785.03125 167.171875 790.113281 154.117188 790.113281 C 141.0625 790.113281 128.789062 785.03125 119.558594 775.800781 C 110.324219 766.570312 105.238281 754.296875 105.238281 741.238281 C 105.238281 728.1875 110.324219 715.910156 119.558594 706.679688 L 221.488281 604.746094 C 230.722656 595.511719 242.996094 590.429688 256.050781 590.429688 C 269.105469 590.429688 281.378906 595.511719 290.613281 604.746094 C 299.84375 613.980469 304.925781 626.25 304.925781 639.304688 C 304.925781 652.363281 299.84375 664.632812 290.613281 673.871094 Z M 561.480469 94.609375 C 424.4375 94.609375 312.953125 206.097656 312.953125 343.132812 C 312.953125 400.585938 332.554688 453.539062 365.410156 495.675781 L 280.902344 580.179688 C 273.136719 576.917969 264.726562 575.199219 256.050781 575.199219 C 238.925781 575.199219 222.828125 581.867188 210.71875 593.976562 L 108.785156 695.90625 C 96.675781 708.015625 90.003906 724.117188 90.003906 741.238281 C 90.003906 758.363281 96.675781 774.460938 108.785156 786.570312 C 120.894531 798.683594 136.992188 805.351562 154.117188 805.351562 C 171.246094 805.351562 187.34375 798.683594 199.449219 786.570312 L 301.382812 684.636719 C 313.492188 672.53125 320.160156 656.433594 320.160156 639.304688 C 320.160156 633.058594 319.261719 626.941406 317.546875 621.109375 L 403.667969 534.988281 C 446.617188 570.378906 501.613281 591.660156 561.480469 591.660156 C 698.519531 591.660156 810.007812 480.171875 810.007812 343.132812 C 810.007812 206.097656 698.519531 94.609375 561.480469 94.609375 "/>
</g>
<path style=" stroke:none;fill-rule:nonzero;fill:rgb(100%,100%,100%);fill-opacity:1;" d="M 561.476562 508.039062 C 470.542969 508.039062 396.574219 434.0625 396.574219 343.136719 C 396.574219 252.210938 470.542969 178.234375 561.476562 178.234375 C 652.402344 178.234375 726.375 252.210938 726.375 343.136719 C 726.375 434.0625 652.402344 508.039062 561.476562 508.039062 Z M 561.476562 163 C 462.144531 163 381.339844 243.808594 381.339844 343.136719 C 381.339844 442.464844 462.144531 523.273438 561.476562 523.273438 C 660.800781 523.273438 741.609375 442.464844 741.609375 343.136719 C 741.609375 243.808594 660.800781 163 561.476562 163 "/>
<path style=" stroke:none;fill-rule:nonzero;fill:rgb(100%,100%,100%);fill-opacity:1;" d="M 561.476562 463.242188 C 502.402344 463.242188 472.40625 455.34375 472.40625 412.191406 C 472.40625 370.296875 501.488281 335.085938 540.519531 325.632812 C 547.058594 328.039062 554.113281 329.359375 561.476562 329.359375 C 568.839844 329.359375 575.898438 328.039062 582.4375 325.632812 C 621.464844 335.085938 650.550781 370.296875 650.550781 412.191406 C 650.550781 455.34375 620.550781 463.242188 561.476562 463.242188 Z M 515.929688 268.574219 C 515.929688 243.457031 536.363281 223.03125 561.476562 223.03125 C 586.59375 223.03125 607.027344 243.457031 607.027344 268.574219 C 607.027344 293.695312 586.59375 314.128906 561.476562 314.128906 C 536.363281 314.128906 515.929688 293.695312 515.929688 268.574219 Z M 600.214844 315.378906 C 613.671875 304.21875 622.261719 287.382812 622.261719 268.574219 C 622.261719 235.058594 594.996094 207.796875 561.476562 207.796875 C 527.960938 207.796875 500.695312 235.058594 500.695312 268.574219 C 500.695312 287.382812 509.28125 304.21875 522.738281 315.378906 C 484.355469 330.789062 457.175781 368.363281 457.175781 412.191406 C 457.175781 478.472656 519.9375 478.472656 561.476562 478.472656 C 603.011719 478.472656 665.785156 478.472656 665.785156 412.191406 C 665.785156 368.363281 638.601562 330.789062 600.214844 315.378906 "/>
</g>
</svg>
